# Alias OBJ Model File
# Exported from SketchUp, (c) 2000-2012 Trimble Navigation Limited
# File units = inches

mtllib ball.mtl

g Mesh1 player Model

usemtl Color_A06
v -1.92747e-14 128.376 -0
vt 3.76031e-15 6.69775
vn -6.30102e-17 1 1.90343e-17
v 13.0301 126.661 -0
vt -2.54205 -6.1966
vn 0.258657 0.965969 -6.39668e-17
v 12.0382 126.661 -4.9864
vt 2.54205 -6.1966
vn 0.238968 0.965969 -0.0989837
f 1/1/1 2/2/2 3/3/3

vt -3.98235e-15 6.69775
vn -6.30102e-17 1 1.46586e-17
v 12.0382 126.661 4.9864
vn 0.238968 0.965969 0.0989837
f 1/4/4 4/2/5 2/3/2

vt -1.11525e-14 6.69775
vn -6.30102e-17 1 1.05017e-17
v 9.21367 126.661 9.21367
vn 0.182898 0.965969 0.182898
f 1/5/6 5/2/7 4/3/5

vt -1.60263e-14 6.69775
vn -5.6009e-17 1 8.75141e-18
v 4.9864 126.661 12.0382
vn 0.0989837 0.965969 0.238968
f 1/6/8 6/2/9 5/3/7

vt -1.89044e-14 6.69775
vn -5.99472e-17 1 5.25085e-18
v 9.17946e-15 126.661 13.0301
vn 2.12054e-16 0.965969 0.258657
f 1/7/10 7/2/11 6/3/9

vn -5.84157e-17 1 8.75141e-18
v -4.9864 126.661 12.0382
vn -0.0989837 0.965969 0.238968
vn 2.11178e-16 0.965969 0.258657
f 1/7/12 8/2/13 7/3/14

vt -1.55822e-14 6.69775
vn -5.95096e-17 1 1.2252e-17
v -9.21367 126.661 9.21367
vn -0.182898 0.965969 0.182898
f 1/8/15 9/2/16 8/3/13

vt -1.02644e-14 6.69775
vn -5.77593e-17 1 7.00113e-18
v -12.0382 126.661 4.9864
vn -0.238968 0.965969 0.0989837
f 1/9/17 10/2/18 9/3/16

vt -3.76031e-15 6.69775
vn -5.95096e-17 1 8.75141e-19
v -13.0301 126.661 9.97732e-15
vn -0.258657 0.965969 1.85767e-16
f 1/10/19 11/2/20 10/3/18

vn -6.12599e-17 1 1.09393e-18
v -12.0382 126.661 -4.9864
vn -0.238968 0.965969 -0.0989837
vn -0.258657 0.965969 1.86643e-16
f 1/1/21 12/2/22 11/3/23

vt 1.07085e-14 6.69775
vn -5.95096e-17 1 4.3757e-18
v -9.21367 126.661 -9.21367
vn -0.182898 0.965969 -0.182898
f 1/11/24 13/2/25 12/3/22

vt 1.60263e-14 6.69775
vn -6.8261e-17 1 9.62655e-18
v -4.9864 126.661 -12.0382
vn -0.0989837 0.965969 -0.238968
f 1/12/26 14/2/27 13/3/25

vt 1.89044e-14 6.69775
vn -6.45416e-17 1 8.75141e-18
v -4.98866e-15 126.661 -13.0301
vn -1.4283e-16 0.965969 -0.258657
f 1/13/28 15/2/29 14/3/27

vt 1.91264e-14 6.69775
vn -6.8261e-17 1 1.05017e-17
v 4.9864 126.661 -12.0382
vn 0.0989837 0.965969 -0.238968
vn -1.43706e-16 0.965969 -0.258657
f 1/14/30 16/2/31 15/3/32

vn -6.56356e-17 1 4.3757e-18
v 9.21367 126.661 -9.21367
vn 0.182898 0.965969 -0.182898
f 1/12/33 17/2/34 16/3/31

vn -5.68842e-17 1 6.12599e-18
f 1/11/35 3/2/3 17/3/34

vt -2.54205 7.14648
v 23.2561 121.631 -9.63299
vt -4.91086 -5.78081
vn 0.461709 0.86617 -0.191246
v 17.7994 121.631 -17.7994
vt 4.91086 -5.78081
vn 0.353376 0.86617 -0.353376
vt 2.54205 7.14648
f 3/15/3 18/16/36 19/17/37 17/18/34 

vn 0.258657 0.965969 -6.30905e-17
v 25.1722 121.631 -0
vn 0.49975 0.86617 -1.65309e-16
f 2/15/38 20/16/39 18/17/36 3/18/3 

v 23.2561 121.631 9.63299
vn 0.461709 0.86617 0.191246
f 4/15/5 21/16/40 20/17/39 2/18/38 

v 17.7994 121.631 17.7994
vn 0.353376 0.86617 0.353376
f 5/15/7 22/16/41 21/17/40 4/18/5 

v 9.63299 121.631 23.2561
vn 0.191246 0.86617 0.461709
f 6/15/9 23/16/42 22/17/41 5/18/7 

vn 2.10302e-16 0.965969 0.258657
v 1.77334e-14 121.631 25.1722
vn 4.74823e-16 0.86617 0.49975
f 7/15/43 24/16/44 23/17/42 6/18/9 

v -9.63299 121.631 23.2561
vn -0.191246 0.86617 0.461709
vn 4.71306e-16 0.86617 0.49975
f 8/15/13 25/16/45 24/17/46 7/18/43 

v -17.7994 121.631 17.7994
vn -0.353376 0.86617 0.353376
f 9/15/16 26/16/47 25/17/45 8/18/13 

v -23.2561 121.631 9.63299
vn -0.461709 0.86617 0.191246
f 10/15/18 27/16/48 26/17/47 9/18/16 

v -25.1722 121.631 1.92747e-14
vn -0.49975 0.86617 3.44687e-16
f 11/15/20 28/16/49 27/17/48 10/18/18 

v -23.2561 121.631 -9.63299
vn -0.461709 0.86617 -0.191246
f 12/15/22 29/16/50 28/17/49 11/18/20 

v -17.7994 121.631 -17.7994
vn -0.353376 0.86617 -0.353376
f 13/15/25 30/16/51 29/17/50 12/18/22 

v -9.63299 121.631 -23.2561
vn -0.191246 0.86617 -0.461709
f 14/15/27 31/16/52 30/17/51 13/18/25 

v -9.63735e-15 121.631 -25.1722
vn -2.00481e-16 0.86617 -0.49975
f 15/15/32 32/16/53 31/17/52 14/18/27 

v 9.63299 121.631 -23.2561
vn 0.191246 0.86617 -0.461709
vn -2.03998e-16 0.86617 -0.49975
f 16/15/31 33/16/54 32/17/55 15/18/32 

f 17/15/34 19/16/37 33/17/54 16/18/31 

vt -4.91086 7.42077
v 25.1722 113.631 -25.1722
vt -6.945 -5.56339
vn 0.499835 0.70734 -0.499835
v 13.6231 113.631 -32.8891
vt 6.945 -5.56339
vn 0.270509 0.70734 -0.653066
vt 4.91086 7.42077
f 19/19/37 34/20/56 35/21/57 33/22/54 

v 32.8891 113.631 -13.6231
vn 0.653066 0.70734 -0.270509
f 18/19/36 36/20/58 34/21/56 19/22/37 

vn 0.49975 0.86617 -1.61792e-16
v 35.5989 113.631 -0
vn 0.706873 0.70734 -2.22629e-16
f 20/19/59 37/20/60 36/21/58 18/22/36 

v 32.8891 113.631 13.6231
vn 0.653066 0.70734 0.270509
f 21/19/40 38/20/61 37/21/60 20/22/39 

v 25.1722 113.631 25.1722
vn 0.499835 0.70734 0.499835
f 22/19/41 39/20/62 38/21/61 21/22/40 

v 13.6231 113.631 32.8891
vn 0.270509 0.70734 0.653066
f 23/19/42 40/20/63 39/21/62 22/22/41 

v 2.50788e-14 113.631 35.5989
vn 6.71421e-16 0.70734 0.706873
f 24/19/44 41/20/64 40/21/63 23/22/42 

v -13.6231 113.631 32.8891
vn -0.270509 0.70734 0.653066
vn 6.74955e-16 0.70734 0.706873
f 25/19/45 42/20/65 41/21/66 24/22/46 

v -25.1722 113.631 25.1722
vn -0.499835 0.70734 0.499835
f 26/19/47 43/20/67 42/21/65 25/22/45 

v -32.8891 113.631 13.6231
vn -0.653066 0.70734 0.270509
f 27/19/48 44/20/68 43/21/67 26/22/47 

v -35.5989 113.631 2.72586e-14
vn -0.706873 0.70734 4.27589e-16
f 28/19/49 45/20/69 44/21/68 27/22/48 

v -32.8891 113.631 -13.6231
vn -0.653066 0.70734 -0.270509
f 29/19/50 46/20/70 45/21/69 28/22/49 

v -25.1722 113.631 -25.1722
vn -0.499835 0.70734 -0.499835
f 30/19/51 47/20/71 46/21/70 29/22/50 

v -13.6231 113.631 -32.8891
vn -0.270509 0.70734 -0.653066
f 31/19/52 48/20/72 47/21/71 30/22/51 

v -1.36293e-14 113.631 -35.5989
vn -2.29697e-16 0.70734 -0.706873
f 32/19/53 49/20/73 48/21/72 31/22/52 

vn -2.26163e-16 0.70734 -0.706873
f 33/19/54 35/20/57 49/21/74 32/22/55 

vt -6.945 7.4488
v 16.6848 103.204 -40.2807
vt -8.50585 -5.60072
vn 0.331359 0.500246 -0.799972
v -1.66924e-14 103.204 -43.5996
vt 8.50585 -5.60072
vn -2.91126e-16 0.500246 -0.865884
vt 6.945 7.4488
f 35/23/57 50/24/75 51/25/76 49/26/74 

v 30.8295 103.204 -30.8295
vn 0.612272 0.500246 -0.612272
f 34/23/56 52/24/77 50/25/75 35/26/57 

v 40.2807 103.204 -16.6848
vn 0.799972 0.500246 -0.331359
f 36/23/58 53/24/78 52/25/77 34/26/56 

vn 0.706873 0.70734 -2.26163e-16
v 43.5996 103.204 -0
vn 0.865884 0.500246 -2.05919e-16
f 37/23/79 54/24/80 53/25/78 36/26/58 

v 40.2807 103.204 16.6848
vn 0.799972 0.500246 0.331359
vn 0.706873 0.70734 -2.19095e-16
f 38/23/61 55/24/81 54/25/80 37/26/82 

v 30.8295 103.204 30.8295
vn 0.612272 0.500246 0.612272
f 39/23/62 56/24/83 55/25/81 38/26/61 

v 16.6848 103.204 40.2807
vn 0.331359 0.500246 0.799972
f 40/23/63 57/24/84 56/25/83 39/26/62 

v 3.07151e-14 103.204 43.5996
vn 7.66869e-16 0.500246 0.865884
f 41/23/64 58/24/85 57/25/84 40/26/63 

v -16.6848 103.204 40.2807
vn -0.331359 0.500246 0.799972
f 42/23/65 59/24/86 58/25/85 41/26/64 

v -30.8295 103.204 30.8295
vn -0.612272 0.500246 0.612272
f 43/23/67 60/24/87 59/25/86 42/26/65 

v -40.2807 103.204 16.6848
vn -0.799972 0.500246 0.331359
f 44/23/68 61/24/88 60/25/87 43/26/67 

vn -0.706873 0.70734 4.31123e-16
v -43.5996 103.204 3.33848e-14
vn -0.865884 0.500246 5.25447e-16
f 45/23/89 62/24/90 61/25/88 44/26/68 

v -40.2807 103.204 -16.6848
vn -0.799972 0.500246 -0.331359
f 46/23/70 63/24/91 62/25/90 45/26/89 

v -30.8295 103.204 -30.8295
vn -0.612272 0.500246 -0.612272
f 47/23/71 64/24/92 63/25/91 46/26/70 

v -16.6848 103.204 -40.2807
vn -0.331359 0.500246 -0.799972
f 48/23/72 65/24/93 64/25/92 47/26/71 

vn -2.84026e-16 0.500246 -0.865884
f 49/23/74 51/24/94 65/25/93 48/26/72 

vt -8.50585 7.22646
v -1.86179e-14 91.062 -48.629
vt -9.48704 -5.87939
vn -3.70487e-16 0.258976 -0.965884
v -18.6095 91.062 -44.9273
vt 9.48704 -5.87939
vn -0.369628 0.258976 -0.89236
vt 8.50585 7.22646
f 51/27/94 66/28/95 67/29/96 65/30/93 

v 18.6095 91.062 -44.9273
vn 0.369628 0.258976 -0.89236
f 50/27/75 68/28/97 66/29/95 51/30/76 

v 34.3859 91.062 -34.3859
vn 0.682983 0.258976 -0.682983
f 52/27/77 69/28/98 68/29/97 50/30/75 

v 44.9273 91.062 -18.6095
vn 0.89236 0.258976 -0.369628
f 53/27/78 70/28/99 69/29/98 52/30/77 

vn 0.865884 0.500246 -1.98818e-16
v 48.629 91.062 -0
vn 0.965884 0.258976 -2.27992e-16
f 54/27/100 71/28/101 70/29/99 53/30/78 

v 44.9273 91.062 18.6095
vn 0.89236 0.258976 0.369628
f 55/27/81 72/28/102 71/29/101 54/30/80 

v 34.3859 91.062 34.3859
vn 0.682983 0.258976 0.682983
f 56/27/83 73/28/103 72/29/102 55/30/81 

v 18.6095 91.062 44.9273
vn 0.369628 0.258976 0.89236
f 57/27/84 74/28/104 73/29/103 56/30/83 

v 3.42582e-14 91.062 48.629
vn 8.54971e-16 0.258976 0.965884
f 58/27/85 75/28/105 74/29/104 57/30/84 

v -18.6095 91.062 44.9273
vn -0.369628 0.258976 0.89236
f 59/27/86 76/28/106 75/29/105 58/30/85 

v -34.3859 91.062 34.3859
vn -0.682983 0.258976 0.682983
f 60/27/87 77/28/107 76/29/106 59/30/86 

v -44.9273 91.062 18.6095
vn -0.89236 0.258976 0.369628
f 61/27/88 78/28/108 77/29/107 60/30/87 

v -48.629 91.062 3.72359e-14
vn -0.965884 0.258976 6.34103e-16
f 62/27/90 79/28/109 78/29/108 61/30/88 

v -44.9273 91.062 -18.6095
vn -0.89236 0.258976 -0.369628
vn -0.965884 0.258976 6.41228e-16
f 63/27/91 80/28/110 79/29/111 62/30/90 

v -34.3859 91.062 -34.3859
vn -0.682983 0.258976 -0.682983
f 64/27/92 81/28/112 80/29/110 63/30/91 

f 65/27/93 67/28/96 81/29/112 64/30/92 

vt -9.48704 6.81506
v -19.266 78.0319 -46.5122
vt -9.82171 -6.32321
vn -0.382683 1.42671e-17 -0.92388
v -35.5989 78.0319 -35.5989
vt 9.82171 -6.32321
vn -0.707107 1.42671e-17 -0.707107
vt 9.48704 6.81506
f 67/31/96 82/32/113 83/33/114 81/34/112 

v -1.92747e-14 78.0319 -50.3444
vn -4.35148e-16 -7.13357e-18 -1
vn -0.382683 7.13357e-18 -0.92388
f 66/31/95 84/32/115 82/33/116 67/34/96 

v 19.266 78.0319 -46.5122
vn 0.382683 7.13357e-18 -0.92388
vn -4.42281e-16 -7.13357e-18 -1
f 68/31/97 85/32/117 84/33/118 66/34/95 

v 35.5989 78.0319 -35.5989
vn 0.707107 2.85343e-17 -0.707107
vn 0.382683 0 -0.92388
f 69/31/98 86/32/119 85/33/120 68/34/97 

v 46.5122 78.0319 -19.266
vn 0.92388 7.13357e-18 -0.382683
vn 0.707107 2.14007e-17 -0.707107
f 70/31/99 87/32/121 86/33/122 69/34/98 

vn 0.965884 0.258976 -2.20867e-16
v 50.3444 78.0319 -0
vn 1 -7.13357e-18 -2.49675e-16
vn 0.92388 1.42671e-17 -0.382683
f 71/31/123 88/32/124 87/33/125 70/34/99 

v 46.5122 78.0319 19.266
vn 0.92388 0 0.382683
f 72/31/102 89/32/126 88/33/124 71/34/101 

v 35.5989 78.0319 35.5989
vn 0.707107 1.42671e-17 0.707107
f 73/31/103 90/32/127 89/33/126 72/34/102 

v 19.266 78.0319 46.5122
vn 0.382683 1.42671e-17 0.92388
f 74/31/104 91/32/128 90/33/127 73/34/103 

v 3.54667e-14 78.0319 50.3444
vn 8.77429e-16 0 1
vn 0.382683 7.13357e-18 0.92388
f 75/31/105 92/32/129 91/33/130 74/34/104 

v -19.266 78.0319 46.5122
vn -0.382683 7.13357e-18 0.92388
vn 8.70295e-16 -7.13357e-18 1
f 76/31/106 93/32/131 92/33/132 75/34/105 

v -35.5989 78.0319 35.5989
vn -0.707107 -7.13357e-18 0.707107
vn -0.382683 0 0.92388
f 77/31/107 94/32/133 93/33/134 76/34/106 

v -46.5122 78.0319 19.266
vn -0.92388 -7.13357e-18 0.382683
vn -0.707107 0 0.707107
f 78/31/108 95/32/135 94/33/136 77/34/107 

v -50.3444 78.0319 3.85494e-14
vn -1 7.13357e-18 6.56288e-16
vn -0.92388 0 0.382683
f 79/31/109 96/32/137 95/33/138 78/34/108 

v -46.5122 78.0319 -19.266
vn -0.92388 0 -0.382683
vn -1 0 6.49155e-16
f 80/31/110 97/32/139 96/33/140 79/34/111 

f 81/31/112 83/32/114 97/33/139 80/34/110 

vt -9.82171 6.32321
v -34.3859 65.0018 -34.3859
vt -9.48704 -6.81506
vn -0.682983 -0.258976 -0.682983
v -44.9273 65.0018 -18.6095
vt 9.48704 -6.81506
vn -0.89236 -0.258976 -0.369628
vt 9.82171 6.32321
f 83/35/114 98/36/141 99/37/142 97/38/139 

v -18.6095 65.0018 -44.9273
vn -0.369628 -0.258976 -0.89236
f 82/35/116 100/36/143 98/37/141 83/38/114 

vn -4.35148e-16 0 -1
v -1.86179e-14 65.0018 -48.629
vn -3.98986e-16 -0.258976 -0.965884
f 84/35/144 101/36/145 100/37/143 82/38/116 

vn 0.382683 -7.13357e-18 -0.92388
v 18.6095 65.0018 -44.9273
vn 0.369628 -0.258976 -0.89236
f 85/35/146 102/36/147 101/37/145 84/38/118 

v 34.3859 65.0018 -34.3859
vn 0.682983 -0.258976 -0.682983
f 86/35/122 103/36/148 102/37/147 85/38/120 

v 44.9273 65.0018 -18.6095
vn 0.89236 -0.258976 -0.369628
f 87/35/121 104/36/149 103/37/148 86/38/122 

vn 1 -7.13357e-18 -2.56808e-16
v 48.629 65.0018 -0
vn 0.965884 -0.258976 -2.20867e-16
f 88/35/150 105/36/151 104/37/149 87/38/125 

v 44.9273 65.0018 18.6095
vn 0.89236 -0.258976 0.369628
vn 1 0 -2.49675e-16
f 89/35/126 106/36/152 105/37/151 88/38/153 

v 34.3859 65.0018 34.3859
vn 0.682983 -0.258976 0.682983
f 90/35/127 107/36/154 106/37/152 89/38/126 

v 18.6095 65.0018 44.9273
vn 0.369628 -0.258976 0.89236
f 91/35/130 108/36/155 107/37/154 90/38/127 

vn 8.77429e-16 -7.13357e-18 1
v 3.42582e-14 65.0018 48.629
vn 8.40721e-16 -0.258976 0.965884
f 92/35/156 109/36/157 108/37/155 91/38/130 

vn -0.382683 -7.13357e-18 0.92388
v -18.6095 65.0018 44.9273
vn -0.369628 -0.258976 0.89236
vn 8.47846e-16 -0.258976 0.965884
f 93/35/158 110/36/159 109/37/160 92/38/132 

vn -0.707107 7.13357e-18 0.707107
v -34.3859 65.0018 34.3859
vn -0.682983 -0.258976 0.682983
f 94/35/161 111/36/162 110/37/159 93/38/134 

vn -0.92388 7.13357e-18 0.382683
v -44.9273 65.0018 18.6095
vn -0.89236 -0.258976 0.369628
f 95/35/163 112/36/164 111/37/162 94/38/136 

vn -1 -7.13357e-18 6.56288e-16
v -48.629 65.0018 3.72359e-14
vn -0.965884 -0.258976 6.12729e-16
f 96/35/165 113/36/166 112/37/164 95/38/138 

vn -0.965884 -0.258976 6.05604e-16
f 97/35/139 99/36/142 113/37/167 96/38/140 

vt -9.48704 5.87939
v -40.2807 52.8597 -16.6848
vt -8.50585 -7.22646
vn -0.799972 -0.500246 -0.331359
v -43.5996 52.8597 3.33848e-14
vt 8.50585 -7.22646
vn -0.865884 -0.500246 5.46749e-16
vt 9.48704 5.87939
f 99/39/142 114/40/168 115/41/169 113/42/167 

v -30.8295 52.8597 -30.8295
vn -0.612272 -0.500246 -0.612272
f 98/39/141 116/40/170 114/41/168 99/42/142 

v -16.6848 52.8597 -40.2807
vn -0.331359 -0.500246 -0.799972
f 100/39/143 117/40/171 116/41/170 98/42/141 

v -1.66924e-14 52.8597 -43.5996
vn -2.98227e-16 -0.500246 -0.865884
f 101/39/145 118/40/172 117/41/171 100/42/143 

v 16.6848 52.8597 -40.2807
vn 0.331359 -0.500246 -0.799972
f 102/39/147 119/40/173 118/41/172 101/42/145 

v 30.8295 52.8597 -30.8295
vn 0.612272 -0.500246 -0.612272
f 103/39/148 120/40/174 119/41/173 102/42/147 

v 40.2807 52.8597 -16.6848
vn 0.799972 -0.500246 -0.331359
f 104/39/149 121/40/175 120/41/174 103/42/148 

v 43.5996 52.8597 -0
vn 0.865884 -0.500246 -1.84617e-16
f 105/39/151 122/40/176 121/41/175 104/42/149 

v 40.2807 52.8597 16.6848
vn 0.799972 -0.500246 0.331359
f 106/39/152 123/40/177 122/41/176 105/42/151 

v 30.8295 52.8597 30.8295
vn 0.612272 -0.500246 0.612272
f 107/39/154 124/40/178 123/41/177 106/42/152 

v 16.6848 52.8597 40.2807
vn 0.331359 -0.500246 0.799972
f 108/39/155 125/40/179 124/41/178 107/42/154 

v 3.07151e-14 52.8597 43.5996
vn 7.66869e-16 -0.500246 0.865884
f 109/39/157 126/40/180 125/41/179 108/42/155 

v -16.6848 52.8597 40.2807
vn -0.331359 -0.500246 0.799972
vn 7.59769e-16 -0.500246 0.865884
f 110/39/159 127/40/181 126/41/182 109/42/160 

v -30.8295 52.8597 30.8295
vn -0.612272 -0.500246 0.612272
f 111/39/162 128/40/183 127/41/181 110/42/159 

v -40.2807 52.8597 16.6848
vn -0.799972 -0.500246 0.331359
f 112/39/164 129/40/184 128/41/183 111/42/162 

f 113/39/166 115/40/169 129/41/184 112/42/164 

vt -8.50585 5.60072
v -35.5989 42.433 2.72586e-14
vt -6.945 -7.4488
vn -0.706873 -0.70734 4.52326e-16
v -32.8891 42.433 13.6231
vt 6.945 -7.4488
vn -0.653066 -0.70734 0.270509
vt 8.50585 5.60072
f 115/43/169 130/44/185 131/45/186 129/46/184 

v -32.8891 42.433 -13.6231
vn -0.653066 -0.70734 -0.270509
vn -0.706873 -0.70734 4.45258e-16
f 114/43/168 132/44/187 130/45/188 115/46/169 

v -25.1722 42.433 -25.1722
vn -0.499835 -0.70734 -0.499835
f 116/43/170 133/44/189 132/45/187 114/46/168 

v -13.6231 42.433 -32.8891
vn -0.270509 -0.70734 -0.653066
f 117/43/171 134/44/190 133/45/189 116/46/170 

v -1.36293e-14 42.433 -35.5989
vn -2.33231e-16 -0.70734 -0.706873
f 118/43/172 135/44/191 134/45/190 117/46/171 

v 13.6231 42.433 -32.8891
vn 0.270509 -0.70734 -0.653066
f 119/43/173 136/44/192 135/45/191 118/46/172 

v 25.1722 42.433 -25.1722
vn 0.499835 -0.70734 -0.499835
f 120/43/174 137/44/193 136/45/192 119/46/173 

v 32.8891 42.433 -13.6231
vn 0.653066 -0.70734 -0.270509
f 121/43/175 138/44/194 137/45/193 120/46/174 

vn 0.865884 -0.500246 -1.77516e-16
v 35.5989 42.433 -0
vn 0.706873 -0.70734 -2.33231e-16
f 122/43/195 139/44/196 138/45/194 121/46/175 

v 32.8891 42.433 13.6231
vn 0.653066 -0.70734 0.270509
f 123/43/177 140/44/197 139/45/196 122/46/176 

v 25.1722 42.433 25.1722
vn 0.499835 -0.70734 0.499835
f 124/43/178 141/44/198 140/45/197 123/46/177 

v 13.6231 42.433 32.8891
vn 0.270509 -0.70734 0.653066
f 125/43/179 142/44/199 141/45/198 124/46/178 

v 2.50788e-14 42.433 35.5989
vn 6.78489e-16 -0.70734 0.706873
f 126/43/180 143/44/200 142/45/199 125/46/179 

v -13.6231 42.433 32.8891
vn -0.270509 -0.70734 0.653066
vn 6.71421e-16 -0.70734 0.706873
f 127/43/181 144/44/201 143/45/202 126/46/182 

v -25.1722 42.433 25.1722
vn -0.499835 -0.70734 0.499835
f 128/43/183 145/44/203 144/45/201 127/46/181 

f 129/43/184 131/44/186 145/45/203 128/46/183 

vt -6.945 5.56339
v -23.2561 34.4324 9.63299
vt -4.91086 -7.42077
vn -0.461709 -0.86617 0.191246
v -17.7994 34.4324 17.7994
vt 4.91086 -7.42077
vn -0.353376 -0.86617 0.353376
vt 6.945 5.56339
f 131/47/186 146/48/204 147/49/205 145/50/203 

v -25.1722 34.4324 1.92747e-14
vn -0.49975 -0.86617 3.20066e-16
f 130/47/185 148/48/206 146/49/204 131/50/186 

v -23.2561 34.4324 -9.63299
vn -0.461709 -0.86617 -0.191246
vn -0.49975 -0.86617 3.16549e-16
f 132/47/187 149/48/207 148/49/208 130/50/188 

v -17.7994 34.4324 -17.7994
vn -0.353376 -0.86617 -0.353376
f 133/47/189 150/48/209 149/49/207 132/50/187 

v -9.63299 34.4324 -23.2561
vn -0.191246 -0.86617 -0.461709
f 134/47/190 151/48/210 150/49/209 133/50/189 

v -9.63735e-15 34.4324 -25.1722
vn -1.75861e-16 -0.86617 -0.49975
f 135/47/191 152/48/211 151/49/210 134/50/190 

v 9.63299 34.4324 -23.2561
vn 0.191246 -0.86617 -0.461709
vn -1.72343e-16 -0.86617 -0.49975
f 136/47/192 153/48/212 152/49/213 135/50/191 

v 17.7994 34.4324 -17.7994
vn 0.353376 -0.86617 -0.353376
f 137/47/193 154/48/214 153/49/212 136/50/192 

v 23.2561 34.4324 -9.63299
vn 0.461709 -0.86617 -0.191246
f 138/47/194 155/48/215 154/49/214 137/50/193 

vn 0.706873 -0.70734 -2.36764e-16
v 25.1722 34.4324 -0
vn 0.49975 -0.86617 -1.79378e-16
f 139/47/216 156/48/217 155/49/215 138/50/194 

v 23.2561 34.4324 9.63299
vn 0.461709 -0.86617 0.191246
f 140/47/197 157/48/218 156/49/217 139/50/196 

v 17.7994 34.4324 17.7994
vn 0.353376 -0.86617 0.353376
f 141/47/198 158/48/219 157/49/218 140/50/197 

v 9.63299 34.4324 23.2561
vn 0.191246 -0.86617 0.461709
f 142/47/199 159/48/220 158/49/219 141/50/198 

v 1.77334e-14 34.4324 25.1722
vn 4.92409e-16 -0.86617 0.49975
f 143/47/200 160/48/221 159/49/220 142/50/199 

v -9.63299 34.4324 23.2561
vn -0.191246 -0.86617 0.461709
vn 4.88892e-16 -0.86617 0.49975
vn 6.74955e-16 -0.70734 0.706873
f 144/47/201 161/48/222 160/49/223 143/50/224 

f 145/47/203 147/48/205 161/49/222 144/50/201 

vt -4.91086 5.78081
v -9.21367 29.4029 9.21367
vt -2.54205 -7.14648
vn -0.182898 -0.965969 0.182898
v -4.9864 29.4029 12.0382
vt 2.54205 -7.14648
vn -0.0989837 -0.965969 0.238968
vt 4.91086 5.78081
f 147/51/205 162/52/225 163/53/226 161/54/222 

v -12.0382 29.4029 4.9864
vn -0.238968 -0.965969 0.0989837
f 146/51/204 164/52/227 162/53/225 147/54/205 

v -13.0301 29.4029 9.97732e-15
vn -0.258657 -0.965969 1.61231e-16
f 148/51/206 165/52/228 164/53/227 146/54/204 

v -12.0382 29.4029 -4.9864
vn -0.238968 -0.965969 -0.0989837
f 149/51/207 166/52/229 165/53/228 148/54/208 

v -9.21367 29.4029 -9.21367
vn -0.182898 -0.965969 -0.182898
f 150/51/209 167/52/230 166/53/229 149/54/207 

v -4.9864 29.4029 -12.0382
vn -0.0989837 -0.965969 -0.238968
f 151/51/210 168/52/231 167/53/230 150/54/209 

v -4.98866e-15 29.4029 -13.0301
vn -1.08656e-16 -0.965969 -0.258657
f 152/51/211 169/52/232 168/53/231 151/54/210 

v 4.9864 29.4029 -12.0382
vn 0.0989837 -0.965969 -0.238968
vn -1.12161e-16 -0.965969 -0.258657
f 153/51/212 170/52/233 169/53/234 152/54/213 

v 9.21367 29.4029 -9.21367
vn 0.182898 -0.965969 -0.182898
f 154/51/214 171/52/235 170/53/233 153/54/212 

v 12.0382 29.4029 -4.9864
vn 0.238968 -0.965969 -0.0989837
f 155/51/215 172/52/236 171/53/235 154/54/214 

v 13.0301 29.4029 -0
vn 0.258657 -0.965969 -4.55654e-17
f 156/51/217 173/52/237 172/53/236 155/54/215 

v 12.0382 29.4029 4.9864
vn 0.238968 -0.965969 0.0989837
f 157/51/218 174/52/238 173/53/237 156/54/217 

v 9.21367 29.4029 9.21367
vn 0.182898 -0.965969 0.182898
f 158/51/219 175/52/239 174/53/238 157/54/218 

v 4.9864 29.4029 12.0382
vn 0.0989837 -0.965969 0.238968
f 159/51/220 176/52/240 175/53/239 158/54/219 

v 9.17946e-15 29.4029 13.0301
vn 2.34837e-16 -0.965969 0.258657
f 160/51/221 177/52/241 176/53/240 159/54/220 

f 161/51/222 163/52/226 177/53/241 160/54/223 

vt -2.54205 6.1966
v -1.78075e-14 27.6875 7.37611e-15
vt -1.60263e-14 -6.69775
vn -5.97284e-17 -1 3.15051e-17
vt 2.54205 6.1966
vn 2.33961e-16 -0.965969 0.258657
f 163/55/226 178/56/242 177/57/243

vt -1.07085e-14 -6.69775
vn -6.2135e-17 -1 3.93813e-17
f 162/55/225 178/58/244 163/57/226

vt -3.31622e-15 -6.69775
vn -7.17616e-17 -1 4.02565e-17
f 164/55/227 178/59/245 162/57/225

vt 3.76031e-15 -6.69775
vn -5.95096e-17 -1 3.41305e-17
f 165/55/228 178/60/246 164/57/227

vt 1.04864e-14 -6.69775
vn -6.30102e-17 -1 3.60996e-17
vn -0.258657 -0.965969 1.62108e-16
f 166/55/229 178/61/247 165/57/248

vt 1.60263e-14 -6.69775
vn -5.68842e-17 -1 3.85062e-17
f 167/55/230 178/62/249 166/57/229

vt 1.84603e-14 -6.69775
vn -7.08864e-17 -1 3.32554e-17
f 168/55/231 178/63/250 167/57/230

vn -1.10408e-16 -0.965969 -0.258657
vt 1.91264e-14 -6.69775
vn -6.78234e-17 -1 3.32554e-17
f 169/55/251 178/64/252 168/57/231

vn -7.08864e-17 -1 2.97548e-17
f 170/55/233 178/62/253 169/57/234

vt 1.07085e-14 -6.69775
vn -6.47604e-17 -1 3.93813e-17
f 171/55/235 178/65/254 170/57/233

vn -7.17616e-17 -1 4.46322e-17
f 172/55/236 178/60/255 171/57/235

vn 0.258657 -0.965969 -4.64417e-17
vt -3.53826e-15 -6.69775
vn -5.95096e-17 -1 4.87891e-17
f 173/55/256 178/66/257 172/57/236

vn -6.65107e-17 -1 4.61637e-17
f 174/55/238 178/58/258 173/57/256

vt -1.55822e-14 -6.69775
vn -6.03847e-17 -1 4.3757e-17
f 175/55/239 178/67/259 174/57/238

vt -1.84603e-14 -6.69775
vn -6.91361e-17 -1 4.55073e-17
f 176/55/240 178/68/260 175/57/239

vt -1.86823e-14 -6.69775
vn -6.12599e-17 -1 4.02565e-17
f 177/55/241 178/69/261 176/57/240

