# Alias OBJ Model File
# Exported from SketchUp, (c) 2000-2012 Trimble Navigation Limited
# File units = inches

mtllib cross.mtl

g Mesh1 box Group2 life Model

usemtl Color_A06
v 60.3908 74.231 82.1962
vt -17.75 -14.534
vn 0 -1.38778e-16 1
v 60.3908 109.731 82.1962
vt 17.75 -14.534
v 31.7024 109.731 82.1962
vt 17.75 14.1544
v 31.7024 74.231 82.1962
vt -17.75 14.1544
f 1/1/1 2/2/1 3/3/1 4/4/1 

vt 17.75 -54.981
vn 1 0 -0
v 60.3908 74.231 27.2152
vt 17.75 0
v 60.3908 109.731 27.2152
vt -17.75 0
vt -17.75 -54.981
f 1/5/2 5/6/2 6/7/2 2/8/2 

usemtl Color_H06
vt -14.534 -54.981
vn 0 -1 -1.38778e-16
vt 14.1544 -54.981
v 31.7024 74.231 -27.7658
vt 14.1544 54.981
v 60.3908 74.231 -27.7658
vt -14.534 54.981
vt -14.534 0
f 1/9/3 4/10/3 7/11/3 8/12/3 5/13/3 

usemtl Color_A06
vn -1 0 -0
v 31.7024 109.731 -27.7658
vt 17.75 54.981
vt -17.75 54.981
f 4/8/4 3/5/4 9/14/4 7/15/4 

usemtl Color_H06
vt -14.1544 -54.981
vn 0 1 1.38778e-16
vt 14.534 -54.981
vt 14.534 0
v 60.3908 109.731 -27.7658
vt 14.534 54.981
vt -14.1544 54.981
f 3/16/5 2/17/5 6/18/5 10/19/5 9/20/5 

usemtl Color_A06
f 10/15/2 6/7/2 5/6/2 8/14/2 

vn 0 1.38778e-16 -1
f 10/1/6 8/2/6 7/3/6 9/4/6 

g Mesh2 box1 Group2 life Model

v 59.75 37 9.46519
vt -17.75 -13.8932
vn 0 -1 -0
v 59.75 37 44.9652
vt 17.75 -13.8932
v 31.8899 37 44.9652
vt 17.75 13.9669
v 31.8899 37 9.46519
vt -17.75 13.9669
f 11/21/7 12/22/7 13/23/7 14/24/7 

v 59.75 91.981 9.46519
v 59.75 91.981 44.9652
f 11/5/2 15/6/2 16/7/2 12/8/2 

usemtl Color_H06
vt -13.8932 -54.981
vn 0 0 -1
vt 13.9669 -54.981
v 31.8899 146.962 9.46519
vt 13.9669 54.981
v 59.75 146.962 9.46519
vt -13.8932 54.981
vt -13.8932 0
f 11/25/8 14/26/8 17/27/8 18/28/8 15/29/8 

usemtl Color_A06
v 31.8899 146.962 44.9652
f 14/8/4 13/5/4 19/14/4 17/15/4 

usemtl Color_H06
vt -13.9669 -54.981
vn 0 0 1
vt 13.8932 -54.981
vt 13.8932 0
v 59.75 146.962 44.9652
vt 13.8932 54.981
vt -13.9669 54.981
f 13/30/9 12/31/9 16/32/9 20/33/9 19/34/9 

usemtl Color_A06
f 20/15/2 16/7/2 15/6/2 18/14/2 

vn 0 1 -0
f 19/24/10 20/21/10 18/22/10 17/23/10 

